<svg width="1280" height="720" xmlns="http://www.w3.org/2000/svg">
  <rect x="50" y="50" width="1180" height="620" fill="#f0f0f0" stroke="#000" stroke-width="2"/>
  <text x="100" y="100" font-size="24" fill="#000">Error Handling Mechanisms</text>
  <rect x="100" y="150" width="300" height="100" fill="#d3f8d3" stroke="#000" stroke-width="2"/>
  <text x="120" y="190" font-size="18" fill="#000">Main Function</text>
  <rect x="500" y="150" width="300" height="100" fill="#d3f8d3" stroke="#000" stroke-width="2"/>
  <text x="520" y="190" font-size="18" fill="#000">wiringPiSetup()</text>
  <rect x="900" y="150" width="300" height="100" fill="#d3f8d3" stroke="#000" stroke-width="2"/>
  <text x="920" y="190" font-size="18" fill="#000">pinMode(LED, OUTPUT)</text>
  <rect x="100" y="300" width="300" height="100" fill="#d3f8d3" stroke="#000" stroke-width="2"/>
  <text x="120" y="340" font-size="18" fill="#000">digitalWrite(LED, HIGH)</text>
  <rect x="500" y="300" width="300" height="100" fill="#d3f8d3" stroke="#000" stroke-width="2"/>
  <text x="520" y="340" font-size="18" fill="#000">delay(500)</text>
  <rect x="900" y="300" width="300" height="100" fill="#d3f8d3" stroke="#000" stroke-width="2"/>
  <text x="920" y="340" font-size="18" fill="#000">digitalWrite(LED, LOW)</text>
  <line x1="400" y1="200" x2="500" y2="200" stroke="#000" stroke-width="2"/>
  <line x1="800" y1="200" x2="900" y2="200" stroke="#000" stroke-width="2"/>
  <line x1="400" y1="350" x2="500" y2="350" stroke="#000" stroke-width="2"/>
  <line x1="800" y1="350" x2="900" y2="350" stroke="#000" stroke-width="2"/>
  <text x="100" y="500" font-size="18" fill="#000">No explicit error handling in this code.</text>
</svg>